HIERARCHY
ROOT Hips
{
	OFFSET 0.000000 0.000000 0.000000
	CHANNELS 6 Xposition Yposition Zposition Zrotation Yrotation Xrotation 
	JOINT LowerBack
	{
		OFFSET 0.000000 0.000000 0.000000
		CHANNELS 3 Zrotation Yrotation Xrotation
		JOINT Spine
		{
			OFFSET 0.028270 2.035590 -0.193380
			CHANNELS 3 Zrotation Yrotation Xrotation
			JOINT Spine1
			{
				OFFSET 0.056720 2.048850 -0.042750
				CHANNELS 3 Zrotation Yrotation Xrotation
				JOINT Neck
				{
					OFFSET 0.000000 0.000000 0.000000
					CHANNELS 3 Zrotation Yrotation Xrotation
					JOINT Neck1
					{
						OFFSET -0.054170 1.746240 0.172020
						CHANNELS 3 Zrotation Yrotation Xrotation
						JOINT Head
						{
							OFFSET 0.104070 1.761360 -0.123970
							CHANNELS 3 Zrotation Yrotation Xrotation
							End Site
							{
								OFFSET 0.000000 0.000000 0.000000
							}
						}
					}
				}
				JOINT LeftShoulder
				{
					OFFSET 0.000000 0.000000 0.000000
					CHANNELS 3 Zrotation Yrotation Xrotation
					JOINT LeftArm
					{
						OFFSET 3.362410 1.200890 -0.311210
						CHANNELS 3 Zrotation Yrotation Xrotation
						JOINT LeftForeArm
						{
							OFFSET 4.983000 -0.000000 -0.000000
							CHANNELS 3 Zrotation Yrotation Xrotation
							JOINT LeftHand
							{
								OFFSET 3.483560 -0.000000 -0.000000
								CHANNELS 3 Zrotation Yrotation Xrotation
								JOINT LeftFingerBase
								{
									OFFSET 0.000000 0.000000 0.000000
									CHANNELS 3 Zrotation Yrotation Xrotation
									JOINT LeftHandIndex1
									{
										OFFSET 0.715260 -0.000000 -0.000000
										CHANNELS 3 Zrotation Yrotation Xrotation
										End Site
										{
											OFFSET 0.000000 0.000000 0.000000
										}
									}
								}
								JOINT LThumb
								{
									OFFSET 0.000000 0.000000 0.000000
									CHANNELS 3 Zrotation Yrotation Xrotation
									End Site
									{
										OFFSET 0.000000 0.000000 0.000000
									}
								}
							}
						}
					}
				}
				JOINT RightShoulder
				{
					OFFSET 0.000000 0.000000 0.000000
					CHANNELS 3 Zrotation Yrotation Xrotation
					JOINT RightArm
					{
						OFFSET -3.136600 1.374050 -0.404650
						CHANNELS 3 Zrotation Yrotation Xrotation
						JOINT RightForeArm
						{
							OFFSET -5.241900 -0.000000 -0.000000
							CHANNELS 3 Zrotation Yrotation Xrotation
							JOINT RightHand
							{
								OFFSET -3.444170 -0.000000 -0.000000
								CHANNELS 3 Zrotation Yrotation Xrotation
								JOINT RightFingerBase
								{
									OFFSET 0.000000 0.000000 0.000000
									CHANNELS 3 Zrotation Yrotation Xrotation
									JOINT RightHandIndex1
									{
										OFFSET -0.622530 -0.000000 -0.000000
										CHANNELS 3 Zrotation Yrotation Xrotation
										End Site
										{
											OFFSET 0.000000 0.000000 0.000000
										}
									}
								}
								JOINT RThumb
								{
									OFFSET 0.000000 0.000000 0.000000
									CHANNELS 3 Zrotation Yrotation Xrotation
									End Site
									{
										OFFSET 0.000000 0.000000 0.000000
									}
								}
							}
						}
					}
				}
			}
		}
	}
}
}
MOTION
Frames: 11
Frame Time: 0.008333
3.848606 17.337255 0.867082 8.248866 -85.050409 4.540224 0.664272 3.594084 -4.278500 0.512375 3.691485 -4.562054 1.538185 3.805573 -5.207472 -6.268661 6.591532 2.873289 -0.626964 -0.234959 2.983851 0.000000 0.000000 0.000000 1.688402 -3.567755 -5.316974 -94.388230 -26.529661 32.776450 179.559454 -53.930662 179.932383 2.961001 -7.383702 -0.211111 0.105413 1.059717 -0.000000 0.000000 0.000000 0.000000 0.000000 0.000000 0.000000 -16.955973 12.480986 2.709644 -7.102884 69.858741 -108.268145 -3.985584 4.287758 -0.080698 -13.769931 8.037482 -1.044661 0.209937 -0.463720 -0.000000 0.000000 0.000000 0.000000 0.000000 0.000000 0.000000 
3.839098 17.339111 0.871761 6.609018 -84.946836 6.192182 0.766525 3.581616 -4.216569 0.477911 3.667065 -4.651663 1.332976 3.807834 -5.644037 -6.021118 5.868886 3.003801 -0.696274 -0.242569 3.025952 0.000000 0.000000 0.000000 2.307141 -3.571428 -5.144570 -94.432538 -25.703179 32.494324 179.480925 -53.443332 179.929606 3.120293 -7.358478 -0.222502 0.102801 1.064530 -0.000000 0.000000 0.000000 0.000000 0.000000 0.000000 0.000000 -16.821785 11.824038 1.636712 0.146022 71.086790 -100.438813 -4.131866 5.486539 -0.080604 -13.056408 8.866498 -1.088098 0.182860 -0.483659 -0.000000 0.000000 0.000000 0.000000 0.000000 0.000000 0.000000 
3.827802 17.339862 0.878710 4.710121 -84.549268 8.311396 1.071977 3.513956 -3.732698 0.337785 3.554464 -4.931334 0.504553 3.767492 -7.135462 -5.526928 4.654165 3.186535 -0.882489 -0.259281 3.092001 0.000000 0.000000 0.000000 3.259181 -3.106269 -4.748119 -94.335304 -24.558970 32.361638 179.616763 -52.908812 179.928803 3.265934 -7.308272 -0.233534 0.084405 1.069693 -0.000000 0.000000 0.000000 0.000000 0.000000 0.000000 0.000000 -16.606985 10.125864 -1.213400 21.463180 72.862163 -74.378119 -5.654951 9.115496 -0.086341 -12.157738 9.256299 -1.055382 0.132849 -0.512433 -0.000000 0.000000 0.000000 0.000000 0.000000 0.000000 0.000000 
3.815126 17.339176 0.887250 3.336973 -84.417720 10.205122 1.735287 2.746417 -2.772560 0.346617 2.698279 -5.075580 -0.321398 2.928356 -8.195535 -5.561667 3.338947 1.795412 -1.381105 -0.258772 2.687421 0.000000 0.000000 0.000000 4.337412 -0.130137 -4.912710 -93.959524 -23.228567 32.008955 179.571162 -51.350758 179.928997 3.403414 -7.293390 -0.242589 0.078568 1.024188 -0.000000 0.000000 0.000000 0.000000 0.000000 0.000000 0.000000 -15.220604 5.100458 -1.672277 53.809482 79.685757 -35.626905 -9.825844 13.564250 -0.120425 -11.948802 8.498061 -0.958837 0.033313 -0.604782 -0.000000 0.000000 0.000000 0.000000 0.000000 0.000000 0.000000 
3.801125 17.336969 0.896645 2.112706 -83.955456 11.121643 1.684022 2.096480 -3.141529 0.430133 2.044279 -4.838117 -0.301392 2.221690 -6.989279 -4.847180 2.259587 1.433709 -1.683962 -0.265951 2.557329 0.000000 0.000000 0.000000 4.948060 0.476548 -5.066942 -93.559048 -22.797419 31.271326 179.299367 -50.825108 179.926266 3.532632 -7.231444 -0.248625 0.091506 1.014570 -0.000000 0.000000 0.000000 0.000000 0.000000 0.000000 0.000000 -12.938612 3.130558 -0.273828 66.200842 80.981964 -15.286326 -9.285507 18.472550 -0.146130 -12.544031 6.894804 -0.836977 0.022117 -0.685392 -0.000000 0.000000 0.000000 0.000000 0.000000 0.000000 0.000000 
3.786262 17.333381 0.906146 1.326924 -83.089906 11.486397 1.410886 1.711280 -3.641030 0.388581 1.680183 -4.835372 -0.475948 1.835811 -6.562072 -3.687670 1.655687 2.176103 -1.834389 -0.286613 2.760147 0.000000 0.000000 0.000000 5.503020 -0.123775 -4.746828 -93.107637 -22.405317 30.632202 179.206463 -51.025587 179.923663 3.640312 -7.124747 -0.253164 0.093890 1.035049 -0.000000 0.000000 0.000000 0.000000 0.000000 0.000000 0.000000 -11.341748 3.051793 -0.982370 65.923515 75.767677 -7.441490 -7.534696 26.634949 -0.163746 -13.257288 5.544394 -0.730798 0.017703 -0.723690 -0.000000 0.000000 0.000000 0.000000 0.000000 0.000000 0.000000 
3.770866 17.328505 0.915050 0.894385 -82.135269 11.510512 1.084662 1.304793 -4.105019 0.353005 1.304357 -4.855094 -0.609583 1.442442 -6.256758 -2.498847 1.514046 3.031922 -1.972826 -0.307695 2.994804 0.000000 0.000000 0.000000 5.897934 -0.703715 -4.366258 -92.589761 -22.129408 30.003768 179.184738 -51.351055 179.921640 3.743977 -7.004867 -0.257135 0.092206 1.056730 -0.000000 0.000000 0.000000 0.000000 0.000000 0.000000 0.000000 -9.699769 3.410039 -1.754030 63.872790 69.780513 -3.855207 -5.657711 36.823093 -0.171301 -13.546318 4.898111 -0.669503 -0.004255 -0.734490 -0.000000 0.000000 0.000000 0.000000 0.000000 0.000000 0.000000 
3.755391 17.322405 0.922655 0.716178 -81.176848 11.333631 0.765890 0.878445 -4.478038 0.324152 0.908048 -4.852504 -0.748969 1.028271 -5.948893 -1.343719 1.630966 3.750978 -2.127694 -0.325960 3.187154 0.000000 0.000000 0.000000 6.165448 -1.043090 -4.025629 -92.041428 -22.036821 29.425663 179.231375 -51.695013 179.920409 3.849296 -6.883960 -0.261159 0.085718 1.074861 -0.000000 0.000000 0.000000 0.000000 0.000000 0.000000 0.000000 -7.947530 3.795459 -2.229869 62.568555 64.179999 -1.635958 -3.941943 47.723786 -0.168690 -13.285858 4.864436 -0.650385 -0.031175 -0.729857 -0.000000 0.000000 0.000000 0.000000 0.000000 0.000000 0.000000 
3.740161 17.315263 0.928478 0.716379 -80.252280 11.045795 0.479017 0.477192 -4.743473 0.282097 0.530021 -4.830350 -0.969551 0.633636 -5.656471 -0.222134 1.765153 4.285864 -2.298432 -0.341028 3.325557 0.000000 0.000000 0.000000 6.372726 -1.144731 -3.737938 -91.506258 -22.148655 28.946561 179.350912 -52.058360 179.919895 3.958905 -6.770884 -0.265859 0.073478 1.090388 -0.000000 0.000000 0.000000 0.000000 0.000000 0.000000 0.000000 -6.217560 4.018524 -2.510521 62.269499 59.049034 0.205308 -2.511682 58.400513 -0.160155 -12.614006 5.195982 -0.651669 -0.052327 -0.721471 -0.000000 0.000000 0.000000 0.000000 0.000000 0.000000 0.000000 
3.725227 17.307298 0.932311 0.835504 -79.390963 10.702891 0.222427 0.131698 -4.917702 0.217754 0.199818 -4.791897 -1.292390 0.289477 -5.378834 0.863753 1.741772 4.640254 -2.477004 -0.353165 3.413143 0.000000 0.000000 0.000000 6.570145 -1.066471 -3.502385 -91.027431 -22.451397 28.585458 179.531170 -52.450617 179.919820 4.075401 -6.673496 -0.271555 0.056007 1.104854 -0.000000 0.000000 0.000000 0.000000 0.000000 0.000000 0.000000 -4.633008 3.991971 -2.700890 62.826272 54.304302 1.992900 -1.382330 68.378387 -0.149880 -11.752285 5.677739 -0.654830 -0.064169 -0.716873 -0.000000 0.000000 0.000000 0.000000 0.000000 0.000000 0.000000 
3.710475 17.298864 0.934128 1.028822 -78.610974 10.339262 -0.009161 -0.147522 -5.017850 0.132155 -0.071183 -4.738688 -1.707063 0.007976 -5.109410 1.903931 1.477458 4.825904 -2.655616 -0.362701 3.454676 0.000000 0.000000 0.000000 6.794506 -0.864225 -3.318110 -90.642066 -22.897251 28.336046 179.750334 -52.860759 179.919902 4.200122 -6.597110 -0.278757 0.034774 1.119038 -0.000000 0.000000 0.000000 0.000000 0.000000 0.000000 0.000000 -3.271993 3.688889 -2.857691 64.066045 49.850629 3.797887 -0.527502 77.484753 -0.140550 -10.899037 6.182923 -0.654829 -0.067203 -0.719656 -0.000000 0.000000 0.000000 0.000000 0.000000 0.000000 0.000000 
